Coordinates
version=1
nRows=34
nColumns=38
inDegrees=no

Units are S.I. units (second, meters, Newtons, ...)
If the header above contains a line with 'inDegrees', this indicates whether rotational values are in degrees (yes) or radians (no).

endheader
time	pelvis_tilt	pelvis_list	pelvis_rotation	pelvis_tx	pelvis_ty	pelvis_tz	hip_flexion_r	hip_adduction_r	hip_rotation_r	knee_angle_r	ankle_angle_r	subtalar_angle_r	mtp_angle_r	hip_flexion_l	hip_adduction_l	hip_rotation_l	knee_angle_l	ankle_angle_l	subtalar_angle_l	mtp_angle_l	lumbar_extension	lumbar_bending	lumbar_rotation	arm_flex_r	arm_add_r	arm_rot_r	elbow_flex_r	pro_sup_r	wrist_flex_r	wrist_dev_r	arm_flex_l	arm_add_l	arm_rot_l	elbow_flex_l	pro_sup_l	wrist_flex_l	wrist_dev_l
1.25	2.37648	1.56657	2.3503	0.736633	-0.0269652	1.03342	0.351063	0.00257242	0.0192373	0.100478	-0.204711	0	0	-0.241297	0.0442108	-0.25793	0.319403	-0.0963336	0	0	-0.0750117	0.0833394	-0.164525	-0.238157	-0.232718	-0.200188	0.499062	0.64751	0	0	0.258374	-0.812467	0.765438	0.846044	1.10173	0	0
1.26	3.02542	1.56602	1.70575	0.73616	-0.0374351	1.03227	0.35448	0.00526915	0.0185205	0.130029	-0.201235	0	0	-0.248469	0.0396676	-0.255818	0.322107	-0.0963322	0	0	-0.0745939	0.0879092	-0.167292	-0.240097	-0.231907	-0.207888	0.503228	0.64412	0	0	0.255424	-0.811406	0.762886	0.851424	1.10687	0	0
1.27	-2.85368	1.56391	1.30619	0.735625	-0.0481192	1.03119	0.357398	0.00858042	0.0164933	0.161943	-0.198768	0	0	-0.255336	0.0346442	-0.253235	0.325191	-0.0970761	0	0	-0.0737711	0.0927129	-0.170061	-0.242181	-0.231542	-0.214248	0.506971	0.642323	0	0	0.250836	-0.809975	0.760145	0.856609	1.11166	0	0
1.28	-2.58753	1.56057	1.04472	0.735034	-0.0589856	1.03031	0.35923	0.0131552	0.012695	0.189339	-0.200054	0	0	-0.261549	0.0283374	-0.250447	0.328964	-0.0986844	0	0	-0.0725575	0.0986645	-0.173262	-0.244078	-0.231737	-0.218686	0.510203	0.642533	0	0	0.244407	-0.807907	0.757178	0.861115	1.11633	0	0
1.29	-2.37421	1.55577	0.83606	0.734442	-0.0699329	1.0298	0.359779	0.0188353	0.00767494	0.204507	-0.206429	0	0	-0.266909	0.0201021	-0.24746	0.333967	-0.101359	0	0	-0.0713277	0.106983	-0.17731	-0.244372	-0.232864	-0.22191	0.511593	0.643706	0	0	0.235928	-0.804385	0.753448	0.863712	1.12095	0	0
1.3	-2.22384	1.54964	0.690179	0.733873	-0.0810152	1.02968	0.358832	0.0251972	0.00139119	0.208831	-0.216708	0	0	-0.271336	0.0102872	-0.24463	0.340815	-0.105703	0	0	-0.0699977	0.117276	-0.182437	-0.243165	-0.234729	-0.224789	0.511173	0.645804	0	0	0.224339	-0.799337	0.747366	0.864419	1.12661	0	0
1.31	-2.1177	1.5429	0.587413	0.733232	-0.0922324	1.02994	0.35624	0.0325778	-0.00468287	0.210926	-0.22832	0	0	-0.275272	-0.000129708	-0.243029	0.349517	-0.111304	0	0	-0.0691203	0.128329	-0.186318	-0.241382	-0.237173	-0.226022	0.508836	0.648503	0	0	0.211489	-0.792887	0.740615	0.863716	1.13271	0	0
1.32	-2.0618	1.53548	0.532951	0.732428	-0.103556	1.03049	0.353935	0.0409011	-0.00909161	0.218955	-0.245308	0	0	-0.277528	-0.0104162	-0.243142	0.360654	-0.118485	0	0	-0.0677424	0.139604	-0.188622	-0.239436	-0.240213	-0.225087	0.504754	0.652708	0	0	0.195698	-0.784812	0.730292	0.861903	1.139	0	0
1.33	-2.04301	1.52791	0.513314	0.731389	-0.114946	1.03124	0.352987	0.0492979	-0.0114719	0.23259	-0.260015	0	0	-0.277696	-0.0198027	-0.243772	0.37475	-0.126297	0	0	-0.0658175	0.150355	-0.188754	-0.237841	-0.243756	-0.221871	0.499636	0.657554	0	0	0.177647	-0.775609	0.717631	0.859489	1.14423	0	0
1.34	-2.03788	1.5211	0.505646	0.730138	-0.126395	1.03213	0.352407	0.0567897	-0.0107022	0.247309	-0.266931	0	0	-0.276305	-0.0279773	-0.243952	0.391943	-0.135033	0	0	-0.0640742	0.160051	-0.188096	-0.235825	-0.247009	-0.218638	0.494332	0.660202	0	0	0.157145	-0.766182	0.703249	0.856873	1.148	0	0
1.35	-2.03292	1.51579	0.497471	0.728722	-0.137897	1.03315	0.350826	0.0630376	-0.00551081	0.262051	-0.268928	0	0	-0.273876	-0.0349587	-0.243288	0.41206	-0.144848	0	0	-0.0631935	0.168001	-0.187491	-0.233696	-0.249439	-0.216426	0.489399	0.659948	0	0	0.135275	-0.75743	0.689049	0.854535	1.1509	0	0
1.36	-2.03142	1.51194	0.492653	0.727227	-0.149383	1.03427	0.34796	0.0683082	0.0027594	0.276527	-0.269291	0	0	-0.26967	-0.0408511	-0.241099	0.435486	-0.155766	0	0	-0.0629616	0.174175	-0.186937	-0.231728	-0.251161	-0.214978	0.484769	0.65756	0	0	0.113417	-0.749177	0.676617	0.852005	1.15319	0	0
1.37	-2.0226	1.50895	0.481161	0.725629	-0.160813	1.03553	0.342908	0.0738337	0.011958	0.288274	-0.267768	0	0	-0.263543	-0.0469493	-0.237182	0.46281	-0.167839	0	0	-0.0636935	0.179342	-0.186562	-0.23007	-0.252695	-0.211561	0.479896	0.656618	0	0	0.0927583	-0.741286	0.667141	0.848736	1.15363	0	0
1.38	-2.02218	1.50643	0.478575	0.72404	-0.172129	1.03681	0.337201	0.079319	0.017314	0.29634	-0.264614	0	0	-0.254058	-0.0527831	-0.231243	0.4943	-0.181501	0	0	-0.0640184	0.183623	-0.187453	-0.227931	-0.254131	-0.207107	0.475099	0.655187	0	0	0.0720937	-0.733808	0.660323	0.844734	1.15149	0	0
1.39	-2.02533	1.50447	0.480468	0.72253	-0.18329	1.03806	0.330681	0.0842011	0.0174756	0.301677	-0.261274	0	0	-0.241293	-0.0581869	-0.222759	0.530265	-0.194843	0	0	-0.0643822	0.187167	-0.18857	-0.226659	-0.255403	-0.202655	0.471515	0.653902	0	0	0.0534844	-0.726869	0.658415	0.84012	1.14713	0	0
1.4	-2.03792	1.50272	0.492788	0.721068	-0.194285	1.03916	0.32381	0.0882784	0.0149349	0.305453	-0.25671	0	0	-0.224724	-0.0631276	-0.211542	0.570187	-0.209092	0	0	-0.0639099	0.189829	-0.190193	-0.22583	-0.256251	-0.198664	0.468708	0.650998	0	0	0.036487	-0.720503	0.660604	0.835158	1.13931	0	0
1.41	-2.05624	1.50114	0.511691	0.719666	-0.204989	1.04012	0.316818	0.0917414	0.0115897	0.308402	-0.250889	0	0	-0.204763	-0.0673812	-0.197752	0.613216	-0.223001	0	0	-0.0634035	0.191938	-0.191514	-0.225408	-0.257052	-0.194391	0.4666	0.649296	0	0	0.0214404	-0.714155	0.664929	0.829728	1.12952	0	0
1.42	-2.08855	1.49918	0.545241	0.718385	-0.215352	1.04088	0.311285	0.0948048	0.00810328	0.311881	-0.242601	0	0	-0.180875	-0.0706041	-0.181413	0.659109	-0.234041	0	0	-0.0617764	0.193813	-0.192892	-0.224977	-0.258181	-0.189417	0.464586	0.648789	0	0	0.00813971	-0.707718	0.672278	0.823432	1.11708	0	0
1.43	-2.12269	1.49683	0.581051	0.717289	-0.225323	1.04154	0.306854	0.09783	0.0046854	0.316507	-0.233246	0	0	-0.154285	-0.0728252	-0.163013	0.70716	-0.23565	0	0	-0.0605293	0.196157	-0.193636	-0.224904	-0.259344	-0.186324	0.464148	0.648716	0	0	-0.00290604	-0.700958	0.682497	0.816371	1.1037	0	0
1.44	-2.13549	1.49313	0.595901	0.716435	-0.23517	1.04215	0.301412	0.102509	0.00404314	0.320649	-0.223331	0	0	-0.126987	-0.0767956	-0.146325	0.755942	-0.224138	0	0	-0.0601455	0.20067	-0.192783	-0.226494	-0.260652	-0.186572	0.465895	0.647053	0	0	-0.0112468	-0.69343	0.69521	0.808757	1.09265	0	0
1.45	-2.11619	1.49044	0.578708	0.715646	-0.244801	1.04296	0.292606	0.107519	0.00594162	0.32368	-0.21392	0	0	-0.101508	-0.0813247	-0.133381	0.804828	-0.203276	0	0	-0.0636396	0.205681	-0.190926	-0.227941	-0.261289	-0.190266	0.469418	0.641696	0	0	-0.018276	-0.685813	0.707494	0.801342	1.08034	0	0
1.46	-2.08161	1.48947	0.545197	0.714903	-0.254187	1.04403	0.281494	0.111535	0.00824846	0.325865	-0.20614	0	0	-0.077421	-0.084363	-0.124818	0.852365	-0.180268	0	0	-0.0704422	0.209927	-0.187945	-0.227637	-0.261743	-0.194939	0.472057	0.634286	0	0	-0.0247626	-0.677811	0.71813	0.793367	1.07063	0	0
1.47	-2.04325	1.49018	0.50676	0.714048	-0.263441	1.04529	0.268882	0.114203	0.0108885	0.326957	-0.198862	0	0	-0.0540575	-0.0855252	-0.11986	0.896763	-0.15785	0	0	-0.0787066	0.212089	-0.182288	-0.227306	-0.262064	-0.197004	0.473349	0.628517	0	0	-0.0287619	-0.670275	0.73255	0.784659	1.05782	0	0
1.48	-2.00695	1.49242	0.469459	0.713031	-0.272651	1.0467	0.255158	0.115456	0.0128937	0.326501	-0.192644	0	0	-0.0309993	-0.0849178	-0.117186	0.936761	-0.138156	0	0	-0.0874628	0.211934	-0.175828	-0.22585	-0.262124	-0.196126	0.472097	0.624626	0	0	-0.0327837	-0.662855	0.746986	0.775327	1.04357	0	0
1.49	-1.98125	1.49572	0.441963	0.711904	-0.281821	1.04811	0.24148	0.11527	0.0141793	0.325065	-0.186882	0	0	-0.00733472	-0.0829701	-0.116344	0.972292	-0.120741	0	0	-0.0952049	0.209743	-0.168807	-0.224013	-0.262123	-0.19269	0.468929	0.621401	0	0	-0.0359575	-0.655705	0.764211	0.765004	1.02654	0	0
1.5	-1.9605	1.50007	0.419191	0.71077	-0.290875	1.04952	0.227635	0.113628	0.0140436	0.323155	-0.181799	0	0	0.0167634	-0.0801859	-0.117472	1.00339	-0.106924	0	0	-0.103034	0.205874	-0.162541	-0.221229	-0.261637	-0.188727	0.464893	0.619517	0	0	-0.0418824	-0.648035	0.775091	0.754713	1.01583	0	0
1.51	-1.94157	1.50507	0.39809	0.709652	-0.299837	1.05089	0.213528	0.111138	0.0125741	0.320512	-0.176645	0	0	0.0407377	-0.0765868	-0.117768	1.02972	-0.0955636	0	0	-0.11078	0.20098	-0.156696	-0.217936	-0.260241	-0.187162	0.459897	0.614472	0	0	-0.0492813	-0.640113	0.782921	0.744259	1.00843	0	0
1.52	-1.93992	1.51043	0.393742	0.708558	-0.308771	1.05216	0.2003	0.107887	0.010599	0.317497	-0.171422	0	0	0.0650962	-0.0725424	-0.119043	1.05056	-0.0869112	0	0	-0.117225	0.194982	-0.150687	-0.214805	-0.258643	-0.185403	0.45452	0.609632	0	0	-0.0581418	-0.631443	0.787766	0.733123	1.00334	0	0
1.53	-1.96047	1.51581	0.411167	0.707478	-0.317705	1.05332	0.188272	0.104057	0.0083193	0.314515	-0.165385	0	0	0.0902154	-0.0682007	-0.121137	1.06587	-0.0798764	0	0	-0.121842	0.188467	-0.14502	-0.211721	-0.257375	-0.182185	0.4488	0.604675	0	0	-0.0674275	-0.622317	0.792734	0.721266	0.995586	0	0
1.54	-1.98696	1.52134	0.434165	0.706413	-0.326601	1.05443	0.176245	0.0997986	0.00560203	0.311179	-0.160103	0	0	0.114552	-0.0637368	-0.124332	1.0758	-0.0736825	0	0	-0.126291	0.181709	-0.139788	-0.208433	-0.256155	-0.178809	0.443519	0.600027	0	0	-0.0773366	-0.613102	0.796652	0.709557	0.9866	0	0
1.55	-2.01259	1.52687	0.456114	0.705351	-0.335472	1.05549	0.163862	0.0954566	0.00212822	0.30748	-0.15538	0	0	0.137673	-0.0598689	-0.129269	1.08075	-0.0672146	0	0	-0.130772	0.174748	-0.134904	-0.204951	-0.254813	-0.175113	0.438432	0.595737	0	0	-0.0877322	-0.60415	0.800117	0.698182	0.976799	0	0
1.56	-2.03559	1.53209	0.475405	0.70429	-0.344359	1.05648	0.151078	0.0914888	-0.00174211	0.303305	-0.150889	0	0	0.159554	-0.0570802	-0.135772	1.08093	-0.0602358	0	0	-0.135051	0.168023	-0.13039	-0.201697	-0.253353	-0.171465	0.434058	0.59151	0	0	-0.0985381	-0.595337	0.803374	0.687066	0.966723	0	0
1.57	-2.04996	1.53739	0.485789	0.703215	-0.353283	1.05745	0.137631	0.0876913	-0.00501189	0.298685	-0.146949	0	0	0.17991	-0.0545447	-0.142714	1.07682	-0.053784	0	0	-0.139743	0.161312	-0.125626	-0.198731	-0.251566	-0.168745	0.430615	0.587608	0	0	-0.109362	-0.586404	0.805922	0.675713	0.959308	0	0
1.58	-2.0425	1.54279	0.473947	0.702187	-0.362252	1.05836	0.123331	0.0840973	-0.00757873	0.293799	-0.142843	0	0	0.198247	-0.0523406	-0.150642	1.0683	-0.0477043	0	0	-0.144989	0.154723	-0.120419	-0.196133	-0.249861	-0.16582	0.428083	0.583947	0	0	-0.119849	-0.577557	0.808889	0.664507	0.952239	0	0
